<?xml version="1.0" encoding="utf-8"?>
<!-- Generator: Adobe Illustrator 23.0.4, SVG Export Plug-In . SVG Version: 6.00 Build 0)  -->
<svg version="1.1" id="Layer_1" xmlns="http://www.w3.org/2000/svg" xmlns:xlink="http://www.w3.org/1999/xlink" x="0px" y="0px"
	 viewBox="0 0 512 512" style="enable-background:new 0 0 512 512;" xml:space="preserve">
<style type="text/css">
	.st0{fill:#FFFF00;}
	.st1{fill:#F7EC13;}
</style>
<path class="st0" d="M430.9,162.1c-35.3,0-64-28.7-64-64s28.7-64,64-64c12.3,0,24.2,3.5,34.5,10.1c4,2.5,5.1,7.8,2.6,11.8
	c-2.5,4-7.8,5.1-11.8,2.6c-7.5-4.8-16.3-7.4-25.3-7.4c-25.9,0-46.9,21.1-46.9,46.9s21.1,46.9,46.9,46.9c8.9,0,17.5-2.5,25-7.2
	c4-2.5,9.2-1.3,11.8,2.7c2.5,4,1.3,9.2-2.7,11.8C454.9,158.7,443.1,162.1,430.9,162.1z"/>
<path class="st0" d="M435.2,93.9h-85.3c-4.7,0-8.5-3.8-8.5-8.5s3.8-8.5,8.5-8.5h85.3c4.7,0,8.5,3.8,8.5,8.5S439.9,93.9,435.2,93.9z"
	/>
<path class="st0" d="M435.2,119.5h-85.3c-4.7,0-8.5-3.8-8.5-8.5s3.8-8.5,8.5-8.5h85.3c4.7,0,8.5,3.8,8.5,8.5
	S439.9,119.5,435.2,119.5z"/>
<path class="st0" d="M285.9,162.1c-35.3,0-64-28.7-64-64s28.7-64,64-64c12.3,0,24.2,3.5,34.5,10.1c4,2.5,5.1,7.8,2.6,11.8
	s-7.8,5.1-11.8,2.6c-7.5-4.8-16.3-7.4-25.3-7.4c-25.9,0-46.9,21.1-46.9,46.9s21.1,46.9,46.9,46.9c8.9,0,17.5-2.5,25-7.2
	c4-2.5,9.2-1.3,11.8,2.7c2.5,4,1.3,9.2-2.7,11.8C309.8,158.7,298,162.1,285.9,162.1z"/>
<path class="st1" d="M290.1,93.9h-85.3c-4.7,0-8.5-3.8-8.5-8.5s3.8-8.5,8.5-8.5h85.3c4.7,0,8.5,3.8,8.5,8.5S294.8,93.9,290.1,93.9z"
	/>
<path class="st0" d="M290.1,119.5h-85.3c-4.7,0-8.5-3.8-8.5-8.5s3.8-8.5,8.5-8.5h85.3c4.7,0,8.5,3.8,8.5,8.5
	S294.8,119.5,290.1,119.5z"/>
<path class="st1" d="M503.5,196.3H8.5c-4.7,0-8.5-3.8-8.5-8.5V8.5C0,3.8,3.8,0,8.5,0h494.9c4.7,0,8.5,3.8,8.5,8.5v179.2
	C512,192.4,508.2,196.3,503.5,196.3z M17.1,179.2h477.9V17.1H17.1V179.2z"/>
<path class="st1" d="M142.9,341.3H61.9c-10.6,0-19.2-8.6-19.2-19.2v-81.1c0-10.6,8.6-19.2,19.2-19.2h81.1c10.6,0,19.2,8.6,19.2,19.2
	v81.1C162.1,332.7,153.5,341.3,142.9,341.3z M61.9,238.9c-1.2,0-2.1,1-2.1,2.1v81.1c0,1.2,1,2.1,2.1,2.1h81.1c1.2,0,2.1-1,2.1-2.1
	v-81.1c0-1.2-1-2.1-2.1-2.1H61.9z"/>
<path class="st1" d="M288,341.3h-81.1c-10.6,0-19.2-8.6-19.2-19.2v-81.1c0-10.6,8.6-19.2,19.2-19.2H288c10.6,0,19.2,8.6,19.2,19.2
	v81.1C307.2,332.7,298.6,341.3,288,341.3z M206.9,238.9c-1.2,0-2.1,1-2.1,2.1v81.1c0,1.2,1,2.1,2.1,2.1H288c1.2,0,2.1-1,2.1-2.1
	v-81.1c0-1.2-1-2.1-2.1-2.1H206.9z"/>
<path class="st0" d="M142.9,469.3H61.9c-10.6,0-19.2-8.6-19.2-19.2v-72.5c0-10.6,8.6-19.2,19.2-19.2h81.1c10.6,0,19.2,8.6,19.2,19.2
	v72.5C162.1,460.7,153.5,469.3,142.9,469.3z M61.9,375.5c-1.2,0-2.1,1-2.1,2.1v72.5c0,1.2,1,2.1,2.1,2.1h81.1c1.2,0,2.1-1,2.1-2.1
	v-72.5c0-1.2-1-2.1-2.1-2.1H61.9z"/>
<path class="st0" d="M288,469.3h-81.1c-10.6,0-19.2-8.6-19.2-19.2v-72.5c0-10.6,8.6-19.2,19.2-19.2H288c10.6,0,19.2,8.6,19.2,19.2
	v72.5C307.2,460.7,298.6,469.3,288,469.3z M206.9,375.5c-1.2,0-2.1,1-2.1,2.1v72.5c0,1.2,1,2.1,2.1,2.1H288c1.2,0,2.1-1,2.1-2.1
	v-72.5c0-1.2-1-2.1-2.1-2.1H206.9z"/>
<path class="st1" d="M450.1,469.3H352c-10.6,0-19.2-8.6-19.2-19.2V241.1c0-10.6,8.6-19.2,19.2-19.2h98.1c10.6,0,19.2,8.6,19.2,19.2
	v209.1C469.3,460.7,460.7,469.3,450.1,469.3z M352,238.9c-1.2,0-2.1,1-2.1,2.1v209.1c0,1.2,1,2.1,2.1,2.1h98.1c1.2,0,2.1-1,2.1-2.1
	V241.1c0-1.2-1-2.1-2.1-2.1H352z"/>
<path class="st1" d="M426.7,341.3h-51.2c-4.7,0-8.5-3.8-8.5-8.5s3.8-8.5,8.5-8.5h51.2c4.7,0,8.5,3.8,8.5,8.5
	S431.4,341.3,426.7,341.3z"/>
<path class="st0" d="M119.5,290.1H85.3c-4.7,0-8.5-3.8-8.5-8.5c0-4.7,3.8-8.5,8.5-8.5h34.1c4.7,0,8.5,3.8,8.5,8.5
	C128,286.3,124.2,290.1,119.5,290.1z"/>
<path class="st1" d="M119.5,426.7H85.3c-4.7,0-8.5-3.8-8.5-8.5s3.8-8.5,8.5-8.5h34.1c4.7,0,8.5,3.8,8.5,8.5S124.2,426.7,119.5,426.7
	z"/>
<path class="st0" d="M426.7,375.5h-51.2c-4.7,0-8.5-3.8-8.5-8.5s3.8-8.5,8.5-8.5h51.2c4.7,0,8.5,3.8,8.5,8.5
	S431.4,375.5,426.7,375.5z"/>
<path class="st1" d="M102.4,307.2c-4.7,0-8.5-3.8-8.5-8.5v-34.1c0-4.7,3.8-8.5,8.5-8.5c4.7,0,8.5,3.8,8.5,8.5v34.1
	C110.9,303.4,107.1,307.2,102.4,307.2z"/>
<path class="st0" d="M230.4,307.2c-2.2,0-4.4-0.8-6-2.5c-3.3-3.3-3.3-8.7,0-12.1l34.1-34.1c3.3-3.3,8.7-3.3,12.1,0s3.3,8.7,0,12.1
	l-34.1,34.1C234.8,306.4,232.6,307.2,230.4,307.2z"/>
<path class="st1" d="M264.5,307.2c-2.2,0-4.4-0.8-6-2.5l-34.1-34.1c-3.3-3.3-3.3-8.7,0-12.1s8.7-3.3,12.1,0l34.1,34.1
	c3.3,3.3,3.3,8.7,0,12.1C268.9,306.4,266.7,307.2,264.5,307.2z"/>
<path class="st1" d="M238.9,435.2c-1.6,0-3.3-0.5-4.7-1.4c-3.9-2.6-5-7.9-2.4-11.8l17.1-25.6c2.6-3.9,7.9-5,11.8-2.4
	c3.9,2.6,5,7.9,2.4,11.8L246,431.4C244.4,433.9,241.7,435.2,238.9,435.2z"/>
<path class="st0" d="M503.5,512H8.5c-4.7,0-8.5-3.8-8.5-8.5V187.7c0-4.7,3.8-8.5,8.5-8.5h494.9c4.7,0,8.5,3.8,8.5,8.5v315.7
	C512,508.2,508.2,512,503.5,512z M17.1,494.9h477.9V196.3H17.1V494.9z"/>
</svg>
